<svg width="246" height="95" viewBox="0 0 246 95" fill="none" xmlns="http://www.w3.org/2000/svg">
<path d="M31.0698 29.383L29.3347 31.0266L43.8933 46.396L45.6284 44.7524L31.0698 29.383Z" fill="#07341F"/>
<path d="M14.63 52.87C9.09003 52.87 4.67001 50.47 2.30001 48.82C1.26001 48.1 0.640001 46.96 0.600001 45.69C0.560001 44.42 1.11001 43.23 2.11001 42.44C15.66 31.71 26.6701 41.47 26.7801 41.57L29.05 43.93C29.31 43.69 29.57 43.43 29.83 43.17C33.62 39.38 36.74 35.94 39.5 32.89C40.1 32.23 40.68 31.59 41.24 30.97L36.87 25.95C34.28 28.86 30.76 32.44 28.23 33.53C23.22 35.41 18.92 35.46 15.39 33.71C10.86 31.46 8.66001 26.78 7.61001 23.26C7.25001 22.05 7.48002 20.78 8.24002 19.76C9.00002 18.75 10.15 18.17 11.41 18.17C19.09 18.18 23.99 21.85 30.36 28.62L30.64 28.92C32.19 27.52 33.85 25.75 35.29 24.13C34.41 23.07 33.78 22.27 33.57 21.99C32.8 21.33 28.67 17.54 28.57 12.14C28.5 8.35003 30.41 4.73001 34.26 1.37001C35.76 0.0600122 38.0301 0.0600122 39.5301 1.37001C43.3801 4.73001 45.29 8.35003 45.22 12.14C45.12 17.55 40.97 21.35 40.21 21.99C39.99 22.27 39.35 23.07 38.46 24.12L42.88 29.19C49.34 22.24 54.2 18.17 62.37 18.16C63.63 18.16 64.78 18.74 65.54 19.75C66.3 20.76 66.53 22.04 66.17 23.25C65.12 26.77 62.92 31.45 58.39 33.7C54.86 35.45 50.56 35.4 45.6 33.54L43.14 32.43C42.54 33.09 41.91 33.78 41.27 34.49C38.49 37.55 35.35 41.03 31.52 44.85C25.42 50.95 19.58 52.87 14.63 52.87ZM15.29 39.76C11.95 39.76 7.95005 40.87 3.59005 44.32C3.19005 44.63 2.97002 45.11 2.99002 45.61C3.01002 46.11 3.25001 46.57 3.67001 46.85C8.24001 50.02 17.1 53.75 27.24 45.5L25.1 43.27C24.89 43.1 21.09 39.76 15.29 39.76ZM44.8401 30.59L46.5 31.34C50.74 32.93 54.4 33.01 57.31 31.57C61.07 29.7 62.94 25.65 63.86 22.58C64 22.1 63.91 21.6 63.61 21.2C63.31 20.8 62.86 20.57 62.36 20.57C55.21 20.57 50.9001 24.1 44.8401 30.59ZM11.39 20.57C10.89 20.57 10.44 20.8 10.14 21.2C9.84004 21.6 9.75004 22.11 9.89004 22.58C10.8 25.65 12.68 29.7 16.44 31.57C19.35 33.02 23.01 32.93 27.32 31.31C27.75 31.12 28.25 30.82 28.77 30.44L28.6 30.26C22.56 23.84 18.24 20.57 11.39 20.57ZM36.87 2.79C36.49 2.79 36.11 2.92002 35.81 3.19002C32.52 6.06002 30.88 9.06 30.94 12.11C31.03 16.83 35.13 20.21 35.17 20.24L35.37 20.44C35.38 20.45 35.95 21.19 36.86 22.3C37.48 21.56 38 20.92 38.38 20.43L38.57 20.24C38.61 20.21 42.73 16.8 42.8 12.09C42.85 9.05004 41.21 6.05002 37.93 3.19002C37.63 2.92002 37.25 2.79 36.87 2.79Z" fill="#07341F"/>
<path d="M40.26 59C38.04 56.71 29.31 47.68 27.53 45.83L29.26 44.17C31.04 46.02 39.77 55.05 41.99 57.34L40.26 59Z" fill="#07341F"/>
<path d="M43.67 62.45C41.84 60.59 39.9 58.61 38 56.65L39.72 54.98C41.62 56.93 43.55 58.91 45.38 60.77L43.67 62.45Z" fill="#07341F"/>
<path d="M50.39 94.38H18.13L22.83 92.1C23.19 91.92 31.88 87.46 32.18 72.49C32.27 68.03 31.11 64.99 29.6 62.93C28.48 64.07 27.4 65.16 26.39 66.16C20.93 71.62 15.22 72.64 11.38 72.59C10.06 72.56 8.84002 71.9 8.12002 70.81C7.40002 69.73 7.26003 68.36 7.75003 67.14C8.65003 64.88 10.11 62.43 12.08 59.88C14.85 56.3 20.22 55 25.14 56.74C26.87 57.35 28.39 58.26 29.68 59.44C37.6 51.37 46.81 41.74 46.92 41.63C47.09 41.47 58.1001 31.72 71.6501 42.44C72.6501 43.23 73.2 44.41 73.16 45.69C73.12 46.96 72.5 48.1 71.46 48.83C66.7701 52.08 55.55 54.39 44.93 47.17C41.48 50.75 36.15 56.28 31.3 61.21C33.5 64.1 34.67 68 34.58 72.54C34.37 83.26 30.1 89.13 27.02 91.99H46.75C43.67 89.14 39.4 83.27 39.19 72.54C38.98 61.7 45.36 58.08 48.11 57.02C53.02 55.14 58.59 56.29 61.64 59.83C63.86 62.4 65.42 64.92 66.27 67.33C66.69 68.52 66.52 69.8 65.81 70.85C65.09 71.9 63.96 72.54 62.69 72.58C58.78 72.72 52.93 71.73 47.36 66.15C46.84 65.63 45.49 64.27 44.51 63.28L44.16 62.92C42.41 65.33 41.5 68.6 41.58 72.48C41.87 87.45 50.56 91.91 50.93 92.1L55.5301 94.37L50.39 94.38ZM45.77 61.16L46.21 61.6C47.18 62.58 48.53 63.95 49.05 64.46C54.01 69.42 59.15 70.31 62.6 70.19C63.1 70.17 63.55 69.92 63.83 69.51C64.11 69.1 64.17 68.6 64.01 68.13C63.26 66.01 61.85 63.74 59.82 61.4C57.45 58.66 52.8801 57.76 48.96 59.26C47.76 59.72 46.69 60.36 45.77 61.16ZM20.69 58.36C17.97 58.36 15.46 59.42 13.97 61.35C12.13 63.72 10.79 65.97 9.97 68.03C9.77 68.52 9.83001 69.05 10.11 69.49C10.4 69.93 10.88 70.19 11.43 70.2C14.82 70.3 19.84 69.33 24.7 64.47C25.73 63.44 26.83 62.33 27.99 61.16C26.64 59.96 25.2601 59.33 24.3401 59C23.1201 58.57 21.88 58.36 20.69 58.36ZM46.6 45.41C56.49 51.9 66.6 49.26 70.08 46.85C70.49 46.56 70.74 46.11 70.75 45.61C70.77 45.1 70.5501 44.63 70.1501 44.32C58.1701 34.84 48.67 43.26 48.58 43.34C48.57 43.36 47.83 44.13 46.6 45.41Z" fill="#07341F"/>
<path d="M97.19 59.37L97.5 66.72L97.37 67.75L97.33 68.2L97.47 69.07L97.78 70.03L98.57 70.57L99.28 70.55L100.45 70.45L108.35 70.63V70.62L111.75 70.69L114.15 70.32L115.04 69.89L115.43 68.92L115.08 67.85L114.07 67.46L108.09 67.99L106.44 67.8L101 67.84C100.66 67.78 100.45 67.59 100.39 67.27L100.19 60.67L100.24 59.86L107.32 60.03L111.52 59.99L112.49 60L113.28 59.54L113.78 58.86L113.85 58.56L113.68 57.82L112.86 57.31L112.04 57.34L111.16 57.4L108.2 57.41L101.56 57.26L99.96 57.06L99.85 55.97L99.44 52.08L99.27 49.29L99.49 49.14L108.41 48.7L111.55 48.85L112.66 48.83L113.3 48.29L113.5 47.26L112.96 46.6L111.02 46.14H107.75L99.19 46.56H98.52L97.26 46.67L96.6 46.95L96.54 48.59L96.76 52.06L96.87 56.03L97.19 59.37Z" fill="#07341F"/>
<path d="M138.54 53.4L132.71 53.33L132.56 53.55L132.41 57.46L133.3 69.86L132.64 70.97L131.46 71.04C131.2 70.77 130.93 69.56 130.65 67.42L129.84 57.9L129.99 53.32H123.49L123.12 51.88C123.5 51.11 123.89 50.7 124.3 50.66L129.98 50.73L130.13 50.58L130.79 44.16L131.09 42.98L131.68 42.09L131.9 41.94L133.01 42.01L133.6 42.9L133.23 44.01L132.79 49.55L132.86 50.73L138.69 50.8L139.5 51.46L139.57 51.68L139.42 52.79L138.54 53.4Z" fill="#07341F"/>
<path d="M162.73 67.65L161.18 68.24L158.37 68.61L153.2 68.02L152.17 67.58L151.28 66.99L149.73 65.51L154.97 64.77L158.29 63.59L160.06 62.41L160.87 61.67L161.53 60.78L162.05 59.82L162.42 57.9L162.35 57.24L161.83 56.21L161.17 55.4L160.21 54.88L158.88 54.66H155.85L153.49 55.25L151.42 56.21L148.83 58.13L147.43 59.75L146.32 61.67L146.1 62.93V64.41L146.54 65.52L147.13 66.48L149.42 68.7L151.12 69.96L152.15 70.4L156.06 71.06L160.49 70.99L162.85 70.4L163.88 69.88L164.18 69.29V68.63L163.52 67.82L162.73 67.65ZM148.5 62.92L148.35 62.77L148.94 61.51L151.01 59.37L153 58.11L154.48 57.52L156.33 57.15H158.4L159.21 57.37L159.58 58.11L159.36 58.92L158.55 60.18L157.96 60.7L156.63 61.44L152.42 62.62L148.5 62.92Z" fill="#07341F"/>
<path d="M214.15 58.68L212.45 56.69L211.49 55.88L209.13 54.62L205.59 54.47L203.08 55.58L201.23 57.35L199.9 59.64L198.94 62.22L197.76 56.17L197.24 54.84L196.72 54.54L195.76 54.61C195.41 55 195.22 55.42 195.17 55.87L197.53 70.49L198.82 70.77L199.97 69.9L200.12 68.28L202.63 59.86L203.3 58.75L204.26 57.86L205.44 57.27L206.92 56.97L208.54 57.19L209.72 57.78L210.75 58.59L212.3 60.66L212.74 61.99L213.04 63.76V67.08L212.89 68.78C212.95 69.31 213.1 69.78 213.33 70.18L213.77 70.48L214.8 70.41C215.18 70.05 215.4 69.66 215.47 69.23L215.25 69.01L215.55 68.12V62.66L215.25 61.18L214.15 58.68Z" fill="#07341F"/>
<path d="M245.17 67.59L244.43 66.63L243.17 64.27L240.07 60.14L237.19 57.63L234.9 56.37L233.64 55.85L232.16 55.48L228.62 55.41L226.04 56.37L224.93 57.11C224.61 57.49 224.41 57.89 224.34 58.29L225.15 59.32L225.74 59.39L227.73 58.43L229.35 57.91H230.75L232.3 58.13L234.88 59.16L236.95 60.64L238.8 62.49L239.76 63.82L237.77 62.86L233.41 61.83L229.94 61.68L226.84 62.2L225.58 62.72L224.47 63.38L223.58 64.34L223.21 65.74L223.36 67.44L224.03 68.62L224.84 69.58L225.8 70.39L227.06 70.91L228.68 71.13L245.44 69.95C245.76 69.53 245.93 69.09 245.96 68.62C245.83 68.18 245.56 67.84 245.17 67.59ZM239.99 67.74L232.02 68.63L228.77 68.56L227.74 68.34L227 67.9L226.41 67.16L226.04 66.35L226.26 65.46L227 65.02L228.92 64.43L230.03 64.28H232.47L235.65 64.8L238.31 65.83L239.93 66.72L241.26 67.75H239.99V67.74Z" fill="#07341F"/>
<path d="M184.59 53.99L183.38 54.67C183.35 54.69 183.32 54.7 183.28 54.72L180.92 55.81C180.79 55.87 180.65 55.91 180.51 55.93L174.53 56.79L174.44 55.23L173.7 54.42H172.59C172.37 54.67 172.17 54.91 172 55.16L172.3 60.03L174 66.23L175.7 69.77L177.1 71.32L177.91 71.17L178.65 70.58L178.8 70.28L176.96 65.98L175.92 63.71L175.4 62.16L174.96 59.78L175.1 59.42L181.05 58.46C181.14 58.45 181.23 58.42 181.31 58.39L182.81 57.85C182.95 57.8 183.08 57.73 183.2 57.64L184.55 56.61L185.22 55.85L185.55 54.91L185.59 54.04L185.21 53.84L184.59 53.99Z" fill="#07341F"/>
</svg>
