<svg width="246" height="94" viewBox="0 0 246 94" fill="none" xmlns="http://www.w3.org/2000/svg">
<path d="M30.4816 28.9993L28.7465 30.6429L43.3052 46.0123L45.0403 44.3687L30.4816 28.9993Z" fill="#D9C472"/>
<path d="M14.032 52.4825C8.49204 52.4825 4.07204 50.0824 1.70204 48.4324C0.662036 47.7124 0.0420394 46.5724 0.00203935 45.3024C-0.0379606 44.0324 0.512049 42.8424 1.51205 42.0524C15.062 31.3224 26.072 41.0824 26.182 41.1824L28.452 43.5424C28.712 43.3024 28.972 43.0424 29.232 42.7824C33.022 38.9924 36.1421 35.5525 38.9021 32.5025C39.5021 31.8425 40.082 31.2025 40.642 30.5825L36.272 25.5625C33.682 28.4725 30.162 32.0524 27.632 33.1424C22.622 35.0224 18.322 35.0725 14.792 33.3225C10.262 31.0725 8.06205 26.3925 7.01205 22.8725C6.65205 21.6625 6.88204 20.3925 7.64204 19.3725C8.40204 18.3625 9.55204 17.7824 10.812 17.7824C18.492 17.7924 23.392 21.4625 29.762 28.2325L30.042 28.5324C31.592 27.1324 33.2521 25.3625 34.6921 23.7425C33.8121 22.6825 33.1821 21.8825 32.9721 21.6025C32.2021 20.9425 28.0721 17.1525 27.9721 11.7525C27.9021 7.96252 29.8121 4.3425 33.6621 0.9825C35.1621 -0.3275 37.432 -0.3275 38.932 0.9825C42.782 4.3425 44.6921 7.96252 44.6221 11.7525C44.5221 17.1625 40.372 20.9625 39.612 21.6025C39.392 21.8825 38.752 22.6825 37.862 23.7325L42.2821 28.8024C48.7421 21.8524 53.602 17.7824 61.772 17.7724C63.032 17.7724 64.1821 18.3525 64.9421 19.3625C65.7021 20.3725 65.932 21.6525 65.572 22.8625C64.522 26.3825 62.322 31.0625 57.792 33.3125C54.262 35.0625 49.9621 35.0124 45.0021 33.1524L42.542 32.0424C41.942 32.7024 41.312 33.3925 40.672 34.1025C37.892 37.1625 34.752 40.6425 30.922 44.4625C24.822 50.5625 18.982 52.4825 14.032 52.4825ZM14.692 39.3725C11.352 39.3725 7.35205 40.4824 2.99204 43.9324C2.59204 44.2424 2.37204 44.7225 2.39204 45.2225C2.41204 45.7225 2.65205 46.1825 3.07205 46.4625C7.64205 49.6325 16.502 53.3625 26.642 45.1125L24.502 42.8825C24.292 42.7025 20.482 39.3725 14.692 39.3725ZM44.242 30.2025L45.9021 30.9525C50.142 32.5425 53.802 32.6225 56.712 31.1825C60.472 29.3125 62.342 25.2625 63.262 22.1925C63.402 21.7125 63.312 21.2125 63.012 20.8125C62.712 20.4125 62.262 20.1825 61.762 20.1825C54.612 20.1825 50.302 23.7025 44.242 30.2025ZM10.792 20.1724C10.292 20.1724 9.84205 20.4024 9.54205 20.8024C9.24205 21.2024 9.15205 21.7125 9.29205 22.1825C10.202 25.2525 12.0821 29.3024 15.8421 31.1724C18.7521 32.6224 22.4121 32.5324 26.7221 30.9124C27.1521 30.7224 27.652 30.4224 28.172 30.0424L28.0021 29.8625C21.9621 23.4425 17.642 20.1824 10.792 20.1724ZM36.272 2.40242C35.892 2.40242 35.512 2.53245 35.212 2.80245C31.922 5.67245 30.2821 8.67249 30.3421 11.7225C30.4321 16.4425 34.532 19.8225 34.572 19.8525L34.772 20.0524C34.782 20.0624 35.352 20.8024 36.262 21.9124C36.882 21.1724 37.4021 20.5324 37.7821 20.0424L37.9721 19.8525C38.0121 19.8225 42.132 16.4125 42.202 11.7025C42.252 8.66247 40.612 5.66245 37.332 2.80245C37.032 2.53245 36.652 2.40242 36.272 2.40242Z" fill="#D9C472"/>
<path d="M39.6621 58.6125C37.4421 56.3225 28.7121 47.2925 26.9321 45.4425L28.6621 43.7825C30.4421 45.6325 39.1721 54.6625 41.3921 56.9525L39.6621 58.6125Z" fill="#D9C472"/>
<path d="M43.072 62.0625C41.242 60.2025 39.302 58.2225 37.402 56.2625L39.122 54.5925C41.022 56.5425 42.952 58.5226 44.782 60.3826L43.072 62.0625Z" fill="#D9C472"/>
<path d="M49.792 93.9925H17.5321L22.2321 91.7125C22.5921 91.5325 31.2821 87.0725 31.5821 72.1025C31.6721 67.6425 30.5121 64.6024 29.0021 62.5424C27.8821 63.6824 26.802 64.7724 25.792 65.7724C20.332 71.2324 14.6221 72.2525 10.7821 72.2025C9.46206 72.1725 8.24206 71.5124 7.52206 70.4224C6.80206 69.3424 6.66207 67.9725 7.15207 66.7525C8.05207 64.4925 9.51207 62.0425 11.4821 59.4925C14.2521 55.9125 19.6221 54.6125 24.5421 56.3425C26.2721 56.9525 27.7921 57.8624 29.0821 59.0424C37.0021 50.9724 46.212 41.3425 46.322 41.2325C46.492 41.0725 57.5021 31.3124 71.0521 42.0424C72.0521 42.8324 72.6021 44.0124 72.5621 45.2924C72.5221 46.5624 71.9021 47.7024 70.8621 48.4324C66.1721 51.6824 54.9521 53.9924 44.3321 46.7724C40.8821 50.3524 35.5521 55.8824 30.7021 60.8124C32.9021 63.7024 34.0721 67.6024 33.9821 72.1424C33.7721 82.8624 29.5021 88.7325 26.4221 91.5925H46.1521C43.0721 88.7425 38.8021 82.8724 38.5921 72.1424C38.3821 61.3024 44.7621 57.6825 47.5121 56.6225C52.4221 54.7425 57.992 55.8924 61.042 59.4324C63.262 62.0024 64.8221 64.5224 65.6721 66.9324C66.0921 68.1224 65.9321 69.4025 65.2121 70.4525C64.4921 71.5025 63.3621 72.1424 62.0921 72.1824C58.1821 72.3224 52.3321 71.3325 46.7621 65.7525C46.2421 65.2325 44.8921 63.8725 43.9121 62.8825L43.5621 62.5224C41.8121 64.9324 40.9021 68.2025 40.9821 72.0825C41.2721 87.0525 49.9621 91.5125 50.3321 91.7025L54.9321 93.9725L49.792 93.9925ZM45.1721 60.7724L45.6121 61.2125C46.5821 62.1925 47.9321 63.5625 48.4521 64.0725C53.4121 69.0325 58.5521 69.9224 62.0021 69.8024C62.5021 69.7824 62.9521 69.5325 63.2321 69.1225C63.5121 68.7125 63.5721 68.2125 63.4121 67.7425C62.6621 65.6225 61.2521 63.3524 59.2221 61.0124C56.8521 58.2724 52.2821 57.3725 48.3621 58.8725C47.1621 59.3225 46.0921 59.9724 45.1721 60.7724ZM20.0821 57.9725C17.3621 57.9725 14.8521 59.0325 13.3621 60.9625C11.5221 63.3425 10.1821 65.5824 9.36206 67.6424C9.16206 68.1324 9.22206 68.6625 9.50206 69.1025C9.79206 69.5425 10.2721 69.8024 10.8221 69.8124C14.2121 69.9124 19.2321 68.9425 24.0921 64.0825C25.1221 63.0525 26.222 61.9424 27.382 60.7724C26.032 59.5724 24.6521 58.9425 23.7321 58.6125C22.5221 58.1825 21.2821 57.9725 20.0821 57.9725ZM46.0021 45.0224C55.8921 51.5124 66.0021 48.8725 69.4821 46.4625C69.8921 46.1725 70.1421 45.7225 70.1521 45.2225C70.1721 44.7125 69.9521 44.2424 69.5521 43.9324C57.5721 34.4524 48.0721 42.8725 47.9821 42.9525C47.9721 42.9725 47.2321 43.7424 46.0021 45.0224Z" fill="#D9C472"/>
<path d="M96.5921 58.9825L96.9021 66.3325L96.7721 67.3625L96.7321 67.8125L96.8721 68.6825L97.1821 69.6425L97.9721 70.1825L98.6821 70.1625L99.8521 70.0625L107.752 70.2426V70.2325L111.152 70.3025L113.552 69.9325L114.442 69.5026L114.832 68.5325L114.482 67.4625L113.472 67.0725L107.492 67.6025L105.842 67.4125L100.402 67.4525C100.062 67.3925 99.8521 67.2026 99.7921 66.8826L99.5921 60.2825L99.6421 59.4725L106.722 59.6425L110.922 59.6025L111.892 59.6125L112.682 59.1525L113.182 58.4725L113.252 58.1725L113.082 57.4325L112.262 56.9225L111.442 56.9525L110.562 57.0125L107.602 57.0225L100.962 56.8726L99.3621 56.6725L99.2521 55.5825L98.8421 51.6925L98.6721 48.9025L98.8921 48.7526L107.812 48.3125L110.952 48.4625L112.062 48.4425L112.702 47.9025L112.902 46.8726L112.362 46.2125L110.422 45.7526H107.152L98.5921 46.1725H97.9221L96.6621 46.2825L96.0021 46.5625L95.9421 48.2025L96.1621 51.6725L96.2721 55.6425L96.5921 58.9825Z" fill="#D9C472"/>
<path d="M137.942 53.0125L132.112 52.9425L131.962 53.1625L131.812 57.0725L132.702 69.4725L132.042 70.5825L130.862 70.6525C130.602 70.3825 130.332 69.1725 130.052 67.0325L129.242 57.5125L129.392 52.9325H122.892L122.522 51.4926C122.902 50.7226 123.292 50.3125 123.702 50.2725L129.382 50.3425L129.532 50.1925L130.192 43.7725L130.492 42.5925L131.082 41.7025L131.302 41.5525L132.412 41.6226L133.002 42.5125L132.632 43.6226L132.192 49.1625L132.262 50.3425L138.092 50.4125L138.902 51.0725L138.972 51.2925L138.822 52.4025L137.942 53.0125Z" fill="#D9C472"/>
<path d="M162.132 67.2625L160.582 67.8525L157.772 68.2225L152.602 67.6326L151.572 67.1925L150.682 66.6025L149.132 65.1226L154.372 64.3826L157.692 63.2025L159.462 62.0225L160.272 61.2825L160.942 60.3925L161.462 59.4325L161.832 57.5125L161.762 56.8525L161.242 55.8225L160.582 55.0125L159.622 54.4926L158.292 54.2725H155.262L152.902 54.8625L150.832 55.8225L148.242 57.7426L146.842 59.3625L145.732 61.2825L145.512 62.5425V64.0225L145.952 65.1326L146.542 66.0925L148.832 68.3125L150.532 69.5725L151.562 70.0125L155.472 70.6725L159.902 70.6025L162.262 70.0125L163.292 69.4926L163.592 68.9025V68.2325L162.922 67.4225L162.132 67.2625ZM147.902 62.5325L147.752 62.3826L148.342 61.1226L150.412 58.9825L152.402 57.7225L153.882 57.1326L155.732 56.7625H157.802L158.612 56.9825L158.982 57.7225L158.762 58.5325L157.952 59.7925L157.362 60.3125L156.032 61.0525L151.822 62.2325L147.902 62.5325Z" fill="#D9C472"/>
<path d="M213.552 58.2925L211.852 56.3025L210.892 55.4926L208.532 54.2325L204.992 54.0825L202.482 55.1925L200.632 56.9625L199.302 59.2526L198.342 61.8325L197.162 55.7825L196.642 54.4525L196.122 54.1525L195.162 54.2225C194.812 54.6125 194.622 55.0325 194.572 55.4825L196.932 70.1025L198.222 70.3826L199.372 69.5125L199.522 67.8925L202.032 59.4725L202.692 58.3625L203.652 57.4725L204.832 56.8826L206.312 56.5825L207.932 56.8025L209.112 57.3925L210.142 58.2025L211.692 60.2725L212.132 61.6025L212.432 63.3726V66.6925L212.282 68.3925C212.342 68.9225 212.492 69.3925 212.722 69.7925L213.162 70.0925L214.192 70.0225C214.572 69.6625 214.792 69.2725 214.862 68.8425L214.642 68.6226L214.942 67.7325V62.2725L214.642 60.7925L213.552 58.2925Z" fill="#D9C472"/>
<path d="M244.572 67.2025L243.832 66.2426L242.572 63.8826L239.472 59.7526L236.592 57.2426L234.302 55.9825L233.042 55.4625L231.562 55.0925L228.022 55.0225L225.442 55.9825L224.332 56.7225C224.012 57.1025 223.812 57.5025 223.742 57.9025L224.552 58.9325L225.142 59.0026L227.132 58.0425L228.752 57.5225H230.152L231.702 57.7426L234.282 58.7725L236.352 60.2526L238.202 62.1025L239.162 63.4325L237.172 62.4725L232.812 61.4425L229.342 61.2925L226.242 61.8125L224.982 62.3325L223.872 62.9926L222.982 63.9525L222.612 65.3525L222.762 67.0525L223.422 68.2325L224.232 69.1925L225.192 70.0026L226.452 70.5225L228.072 70.7426L244.832 69.5625C245.152 69.1425 245.322 68.7025 245.352 68.2325C245.232 67.7925 244.962 67.4525 244.572 67.2025ZM239.392 67.3525L231.422 68.2426L228.172 68.1725L227.142 67.9525L226.402 67.5125L225.812 66.7725L225.442 65.9625L225.662 65.0725L226.402 64.6326L228.322 64.0425L229.432 63.8925H231.872L235.052 64.4125L237.712 65.4425L239.332 66.3325L240.662 67.3625H239.392V67.3525Z" fill="#D9C472"/>
<path d="M183.992 53.5925L182.782 54.2725C182.752 54.2925 182.722 54.3025 182.682 54.3225L180.322 55.4125C180.192 55.4725 180.052 55.5125 179.912 55.5325L173.932 56.3925L173.842 54.8325L173.102 54.0225H171.992C171.772 54.2725 171.572 54.5125 171.402 54.7625L171.702 59.6326L173.402 65.8325L175.102 69.3726L176.502 70.9225L177.312 70.7725L178.052 70.1825L178.202 69.8826L176.362 65.5825L175.322 63.3125L174.802 61.7625L174.362 59.3826L174.502 59.0225L180.452 58.0625C180.542 58.0525 180.632 58.0226 180.712 57.9926L182.212 57.4525C182.352 57.4025 182.482 57.3326 182.602 57.2426L183.952 56.2125L184.622 55.4525L184.952 54.5125L184.992 53.6425L184.612 53.4425L183.992 53.5925Z" fill="#D9C472"/>
</svg>
