<svg width="246" height="95" viewBox="0 0 246 95" fill="none" xmlns="http://www.w3.org/2000/svg">
<path d="M30.7043 29.3898L28.9692 31.0334L43.5278 46.4028L45.2629 44.7592L30.7043 29.3898Z" fill="#1A171B"/>
<path d="M14.26 52.87C8.72 52.87 4.3 50.47 1.93 48.82C0.890003 48.1 0.270006 46.96 0.230006 45.69C0.190006 44.42 0.740015 43.23 1.74002 42.44C15.29 31.71 26.3 41.47 26.41 41.57L28.68 43.93C28.94 43.69 29.2 43.43 29.46 43.17C33.25 39.38 36.37 35.94 39.13 32.89C39.73 32.23 40.31 31.59 40.87 30.97L36.5 25.95C33.91 28.86 30.39 32.44 27.86 33.53C22.85 35.41 18.55 35.46 15.02 33.71C10.49 31.46 8.29002 26.78 7.24002 23.26C6.88002 22.05 7.11001 20.78 7.87001 19.76C8.63 18.75 9.78 18.17 11.04 18.17C18.72 18.18 23.62 21.85 29.99 28.62L30.27 28.92C31.82 27.52 33.48 25.75 34.92 24.13C34.04 23.07 33.41 22.27 33.2 21.99C32.43 21.33 28.3 17.54 28.2 12.14C28.13 8.35003 30.04 4.73001 33.89 1.37001C35.39 0.0600122 37.66 0.0600122 39.16 1.37001C43.01 4.73001 44.92 8.35003 44.85 12.14C44.75 17.55 40.6 21.35 39.84 21.99C39.62 22.27 38.98 23.07 38.09 24.12L42.51 29.19C48.97 22.24 53.83 18.17 62 18.16C63.26 18.16 64.41 18.74 65.17 19.75C65.93 20.76 66.16 22.04 65.8 23.25C64.75 26.77 62.55 31.45 58.02 33.7C54.49 35.45 50.19 35.4 45.23 33.54L42.77 32.43C42.17 33.09 41.54 33.78 40.9 34.49C38.12 37.55 34.98 41.03 31.15 44.85C25.05 50.95 19.21 52.87 14.26 52.87ZM14.92 39.76C11.58 39.76 7.58001 40.87 3.22001 44.32C2.82001 44.63 2.60001 45.11 2.62001 45.61C2.64001 46.11 2.88001 46.57 3.30001 46.85C7.87001 50.02 16.73 53.75 26.87 45.5L24.73 43.27C24.52 43.1 20.71 39.76 14.92 39.76ZM44.47 30.59L46.13 31.34C50.37 32.93 54.03 33.01 56.94 31.57C60.7 29.7 62.57 25.65 63.49 22.58C63.63 22.1 63.54 21.6 63.24 21.2C62.94 20.8 62.49 20.57 61.99 20.57C54.84 20.57 50.53 24.1 44.47 30.59ZM11.02 20.57C10.52 20.57 10.07 20.8 9.77001 21.2C9.47001 21.6 9.38001 22.11 9.52001 22.58C10.43 25.65 12.31 29.7 16.07 31.57C18.98 33.02 22.64 32.93 26.95 31.31C27.38 31.12 27.88 30.82 28.4 30.44L28.23 30.26C22.19 23.84 17.87 20.57 11.02 20.57ZM36.5 2.79C36.12 2.79 35.74 2.92002 35.44 3.19002C32.15 6.06002 30.51 9.06 30.57 12.11C30.66 16.83 34.76 20.21 34.8 20.24L35 20.44C35.01 20.45 35.58 21.19 36.49 22.3C37.11 21.56 37.63 20.92 38.01 20.43L38.2 20.24C38.24 20.21 42.36 16.8 42.43 12.09C42.48 9.05004 40.84 6.05002 37.56 3.19002C37.26 2.92002 36.88 2.79 36.5 2.79Z" fill="#1A171B"/>
<path d="M39.89 59C37.67 56.71 28.94 47.68 27.16 45.83L28.89 44.17C30.67 46.02 39.4 55.05 41.62 57.34L39.89 59Z" fill="#1A171B"/>
<path d="M43.3 62.45C41.47 60.59 39.53 58.61 37.63 56.65L39.35 54.98C41.25 56.93 43.18 58.91 45.01 60.77L43.3 62.45Z" fill="#1A171B"/>
<path d="M50.02 94.38H17.76L22.46 92.1C22.82 91.92 31.51 87.46 31.81 72.49C31.9 68.03 30.74 64.99 29.23 62.93C28.11 64.07 27.03 65.16 26.02 66.16C20.56 71.62 14.85 72.64 11.01 72.59C9.69002 72.56 8.47003 71.9 7.75003 70.81C7.03003 69.73 6.89003 68.36 7.38003 67.14C8.28003 64.88 9.74003 62.43 11.71 59.88C14.48 56.3 19.85 55 24.77 56.74C26.5 57.35 28.02 58.26 29.31 59.44C37.23 51.37 46.44 41.74 46.55 41.63C46.72 41.47 57.73 31.72 71.28 42.44C72.28 43.23 72.83 44.41 72.79 45.69C72.75 46.96 72.13 48.1 71.09 48.83C66.4 52.08 55.18 54.39 44.56 47.17C41.11 50.75 35.78 56.28 30.93 61.21C33.13 64.1 34.3 68 34.21 72.54C34 83.26 29.73 89.13 26.65 91.99H46.38C43.3 89.14 39.03 83.27 38.82 72.54C38.61 61.7 44.99 58.08 47.74 57.02C52.65 55.14 58.22 56.29 61.27 59.83C63.49 62.4 65.05 64.92 65.9 67.33C66.32 68.52 66.16 69.8 65.44 70.85C64.72 71.9 63.59 72.54 62.32 72.58C58.41 72.72 52.56 71.73 46.99 66.15C46.47 65.63 45.12 64.27 44.14 63.28L43.79 62.92C42.04 65.33 41.13 68.6 41.21 72.48C41.5 87.45 50.19 91.91 50.56 92.1L55.16 94.37L50.02 94.38ZM45.4 61.16L45.84 61.6C46.81 62.58 48.16 63.95 48.68 64.46C53.64 69.42 58.78 70.31 62.23 70.19C62.73 70.17 63.18 69.92 63.46 69.51C63.74 69.1 63.8 68.6 63.64 68.13C62.89 66.01 61.48 63.74 59.45 61.4C57.08 58.66 52.51 57.76 48.59 59.26C47.39 59.72 46.32 60.36 45.4 61.16ZM20.31 58.36C17.59 58.36 15.08 59.42 13.59 61.35C11.75 63.72 10.41 65.97 9.59002 68.03C9.39002 68.52 9.45002 69.05 9.73002 69.49C10.02 69.93 10.5 70.19 11.05 70.2C14.44 70.3 19.46 69.33 24.32 64.47C25.35 63.44 26.45 62.33 27.61 61.16C26.26 59.96 24.88 59.33 23.96 59C22.75 58.57 21.51 58.36 20.31 58.36ZM46.23 45.41C56.12 51.9 66.23 49.26 69.71 46.85C70.12 46.56 70.37 46.11 70.38 45.61C70.4 45.1 70.18 44.63 69.78 44.32C57.8 34.84 48.3 43.26 48.21 43.34C48.2 43.36 47.46 44.13 46.23 45.41Z" fill="#1A171B"/>
<path d="M96.82 59.37L97.13 66.72L97 67.75L96.96 68.2L97.1 69.07L97.41 70.03L98.2 70.57L98.91 70.55L100.08 70.45L107.98 70.63V70.62L111.38 70.69L113.78 70.32L114.67 69.89L115.06 68.92L114.71 67.85L113.7 67.46L107.72 67.99L106.07 67.8L100.63 67.84C100.29 67.78 100.08 67.59 100.02 67.27L99.82 60.67L99.87 59.86L106.95 60.03L111.15 59.99L112.12 60L112.91 59.54L113.41 58.86L113.48 58.56L113.31 57.82L112.49 57.31L111.67 57.34L110.79 57.4L107.83 57.41L101.19 57.26L99.59 57.06L99.48 55.97L99.07 52.08L98.9 49.29L99.12 49.14L108.04 48.7L111.18 48.85L112.29 48.83L112.93 48.29L113.13 47.26L112.59 46.6L110.65 46.14H107.38L98.82 46.56H98.15L96.89 46.67L96.23 46.95L96.17 48.59L96.39 52.06L96.5 56.03L96.82 59.37Z" fill="#1A171B"/>
<path d="M138.17 53.4L132.34 53.33L132.19 53.55L132.04 57.46L132.93 69.86L132.27 70.97L131.09 71.04C130.83 70.77 130.56 69.56 130.28 67.42L129.47 57.9L129.62 53.32H123.12L122.75 51.88C123.13 51.11 123.52 50.7 123.93 50.66L129.61 50.73L129.76 50.58L130.42 44.16L130.72 42.98L131.31 42.09L131.53 41.94L132.64 42.01L133.23 42.9L132.86 44.01L132.42 49.55L132.49 50.73L138.32 50.8L139.13 51.46L139.2 51.68L139.05 52.79L138.17 53.4Z" fill="#1A171B"/>
<path d="M162.36 67.65L160.81 68.24L158 68.61L152.83 68.02L151.8 67.58L150.91 66.99L149.36 65.51L154.6 64.77L157.92 63.59L159.69 62.41L160.5 61.67L161.17 60.78L161.69 59.82L162.06 57.9L161.99 57.24L161.47 56.21L160.81 55.4L159.85 54.88L158.52 54.66H155.49L153.13 55.25L151.06 56.21L148.47 58.13L147.07 59.75L145.96 61.67L145.74 62.93V64.41L146.18 65.52L146.77 66.48L149.06 68.7L150.76 69.96L151.79 70.4L155.7 71.06L160.13 70.99L162.49 70.4L163.52 69.88L163.82 69.29V68.63L163.15 67.82L162.36 67.65ZM148.13 62.92L147.98 62.77L148.57 61.51L150.64 59.37L152.63 58.11L154.11 57.52L155.96 57.15H158.03L158.84 57.37L159.21 58.11L158.99 58.92L158.18 60.18L157.59 60.7L156.26 61.44L152.05 62.62L148.13 62.92Z" fill="#1A171B"/>
<path d="M213.78 58.68L212.08 56.69L211.12 55.88L208.76 54.62L205.22 54.47L202.71 55.58L200.86 57.35L199.53 59.64L198.57 62.22L197.39 56.17L196.87 54.84L196.35 54.54L195.39 54.61C195.04 55 194.85 55.42 194.8 55.87L197.16 70.49L198.45 70.77L199.6 69.9L199.75 68.28L202.26 59.86L202.92 58.75L203.88 57.86L205.06 57.27L206.54 56.97L208.16 57.19L209.34 57.78L210.37 58.59L211.92 60.66L212.36 61.99L212.66 63.76V67.08L212.51 68.78C212.57 69.31 212.72 69.78 212.95 70.18L213.39 70.48L214.42 70.41C214.8 70.05 215.02 69.66 215.09 69.23L214.87 69.01L215.17 68.12V62.66L214.87 61.18L213.78 58.68Z" fill="#1A171B"/>
<path d="M244.8 67.59L244.06 66.63L242.8 64.27L239.7 60.14L236.82 57.63L234.53 56.37L233.27 55.85L231.79 55.48L228.25 55.41L225.67 56.37L224.56 57.11C224.24 57.49 224.04 57.89 223.97 58.29L224.78 59.32L225.37 59.39L227.36 58.43L228.98 57.91H230.38L231.93 58.13L234.51 59.16L236.58 60.64L238.43 62.49L239.39 63.82L237.4 62.86L233.04 61.83L229.57 61.68L226.47 62.2L225.21 62.72L224.1 63.38L223.21 64.34L222.84 65.74L222.99 67.44L223.65 68.62L224.46 69.58L225.42 70.39L226.68 70.91L228.3 71.13L245.06 69.95C245.38 69.53 245.55 69.09 245.58 68.62C245.46 68.18 245.19 67.84 244.8 67.59ZM239.62 67.74L231.65 68.63L228.4 68.56L227.37 68.34L226.63 67.9L226.04 67.16L225.67 66.35L225.89 65.46L226.63 65.02L228.55 64.43L229.66 64.28H232.1L235.28 64.8L237.94 65.83L239.56 66.72L240.89 67.75H239.62V67.74Z" fill="#1A171B"/>
<path d="M184.22 53.99L183.01 54.67C182.98 54.69 182.95 54.7 182.91 54.72L180.55 55.81C180.42 55.87 180.28 55.91 180.14 55.93L174.16 56.79L174.07 55.23L173.33 54.42H172.22C172 54.67 171.8 54.91 171.63 55.16L171.93 60.03L173.63 66.23L175.33 69.77L176.73 71.32L177.54 71.17L178.28 70.58L178.43 70.28L176.59 65.98L175.55 63.71L175.03 62.16L174.59 59.78L174.73 59.42L180.68 58.46C180.77 58.45 180.86 58.42 180.94 58.39L182.44 57.85C182.58 57.8 182.71 57.73 182.83 57.64L184.18 56.61L184.85 55.85L185.18 54.91L185.22 54.04L184.84 53.84L184.22 53.99Z" fill="#1A171B"/>
</svg>
